# This file uses centimeters as units for non-parametric coordinates.

mtllib box_withoutflaps.mtl
g default
v -0.554150 0.000000 0.765013
v 0.554150 0.000000 0.765013
v -0.554150 0.731941 0.765013
v 0.554150 0.731941 0.765013
v -0.554150 0.731941 -0.765013
v 0.554150 0.731941 -0.765013
v -0.554150 0.000000 -0.765013
v 0.554150 0.000000 -0.765013
v -0.554150 0.731941 -0.716403
v -0.554150 0.000000 -0.716403
v 0.554150 0.000000 -0.716403
v 0.554150 0.731941 -0.716403
v -0.554150 0.731941 0.716403
v -0.554150 0.000000 0.716403
v 0.554150 0.000000 0.716403
v 0.554150 0.731941 0.716403
v 0.507225 0.000000 -0.765013
v 0.507225 0.000000 -0.716403
v 0.507225 0.000000 0.716403
v 0.507225 0.000000 0.765013
v 0.507225 0.731941 0.765013
v 0.507225 0.731941 0.716403
v 0.507225 0.731941 -0.716403
v 0.507225 0.731941 -0.765013
v -0.507225 0.000000 -0.765013
v -0.507225 0.000000 -0.716403
v -0.507225 0.000000 0.716403
v -0.507225 0.000000 0.765013
v -0.507225 0.731941 0.765013
v -0.507225 0.731941 0.716403
v -0.507225 0.731941 -0.716403
v -0.507225 0.731941 -0.765013
v -0.554150 0.676333 0.765013
v -0.554150 0.676333 0.716403
v -0.554150 0.676333 -0.716403
v -0.554150 0.676333 -0.765013
v -0.507225 0.676333 -0.765013
v 0.507225 0.676333 -0.765013
v 0.554150 0.676333 -0.765013
v 0.554150 0.676333 -0.716403
v 0.554150 0.676333 0.716403
v 0.554150 0.676333 0.765013
v 0.507225 0.676333 0.765013
v -0.507225 0.676333 0.765013
v -0.554150 0.055608 0.765013
v -0.554150 0.055608 0.716403
v -0.554150 0.055608 -0.716403
v -0.554150 0.055608 -0.765013
v -0.507225 0.055608 -0.765013
v 0.507225 0.055608 -0.765013
v 0.554150 0.055608 -0.765013
v 0.554150 0.055608 -0.716403
v 0.554150 0.055608 0.716403
v 0.554150 0.055608 0.765013
v 0.507225 0.055608 0.765013
v -0.507225 0.055608 0.765013
v 0.000000 0.731941 -0.765013
v 0.000000 0.676333 -0.765013
v 0.000000 0.055608 -0.765013
v 0.000000 0.000000 -0.765013
v 0.000000 0.000000 -0.716403
v 0.000000 0.000000 0.716403
v 0.000000 0.000000 0.765013
v 0.000000 0.055608 0.765013
v 0.000000 0.676333 0.765013
v 0.000000 0.731941 0.765013
v 0.000000 0.731941 0.716403
v 0.000000 0.731941 -0.716403
v -0.480062 0.343390 0.678039
v -0.480062 0.343390 -0.678039
v 0.000000 0.343390 0.678039
v 0.000000 0.343390 -0.678039
v 0.480063 0.343390 0.678039
v 0.480063 0.343390 -0.678039
vt 0.375000 0.000000
vt 0.458333 0.000000
vt 0.458333 0.083333
vt 0.375000 0.083333
vt 0.375000 0.250000
vt 0.458333 0.250000
vt 0.458333 0.333333
vt 0.375000 0.333333
vt 0.375000 0.666667
vt 0.458333 0.666667
vt 0.458333 0.750000
vt 0.375000 0.750000
vt 0.375000 0.916667
vt 0.458333 0.916667
vt 0.458333 1.000000
vt 0.375000 1.000000
vt 0.625000 0.000000
vt 0.708333 0.000000
vt 0.708333 0.083333
vt 0.625000 0.083333
vt 0.291667 0.000000
vt 0.291667 0.083333
vt 0.125000 0.000000
vt 0.208333 0.000000
vt 0.208333 0.083333
vt 0.125000 0.083333
vt 0.458333 0.833333
vt 0.375000 0.833333
vt 0.791667 0.083333
vt 0.791667 0.000000
vt 0.875000 0.000000
vt 0.875000 0.083333
vt 0.375000 0.416667
vt 0.458333 0.416667
vt 0.458333 0.500000
vt 0.375000 0.500000
vt 0.541667 0.750000
vt 0.625000 0.750000
vt 0.625000 0.833333
vt 0.541667 0.833333
vt 0.541667 0.916667
vt 0.625000 0.916667
vt 0.541667 1.000000
vt 0.625000 1.000000
vt 0.541667 0.083333
vt 0.541667 0.000000
vt 0.541667 0.333333
vt 0.541667 0.250000
vt 0.625000 0.250000
vt 0.625000 0.333333
vt 0.541667 0.416667
vt 0.625000 0.416667
vt 0.541667 0.500000
vt 0.625000 0.500000
vt 0.541667 0.666667
vt 0.625000 0.666667
vt 0.500000 0.750000
vt 0.500000 0.833333
vt 0.500000 0.916667
vt 0.500000 1.000000
vt 0.500000 0.000000
vt 0.500000 0.083333
vt 0.500000 0.250000
vt 0.500000 0.333333
vt 0.458333 0.416667
vt 0.458333 0.333333
vt 0.500000 0.333333
vt 0.500000 0.416667
vt 0.500000 0.416667
vt 0.500000 0.500000
vt 0.500000 0.666667
vt 0.291667 0.166667
vt 0.375000 0.166667
vt 0.291667 0.250000
vt 0.208333 0.166667
vt 0.208333 0.250000
vt 0.125000 0.166667
vt 0.125000 0.250000
vt 0.458333 0.583333
vt 0.375000 0.583333
vt 0.500000 0.583333
vt 0.625000 0.583333
vt 0.541667 0.583333
vt 0.791667 0.250000
vt 0.791667 0.166667
vt 0.875000 0.166667
vt 0.875000 0.250000
vt 0.708333 0.250000
vt 0.708333 0.166667
vt 0.625000 0.166667
vt 0.541667 0.166667
vt 0.458333 0.166667
vt 0.500000 0.166667
vt 0.541667 0.333333
vt 0.541667 0.416667
vn 0.000000 0.000000 1.000000
vn 0.000000 0.000000 1.000000
vn 0.000000 0.000000 1.000000
vn 0.000000 0.000000 1.000000
vn 0.000000 1.000000 0.000000
vn 0.000000 1.000000 0.000000
vn 0.000000 1.000000 0.000000
vn 0.000000 1.000000 0.000000
vn 0.000000 0.000000 -1.000000
vn 0.000000 0.000000 -1.000000
vn 0.000000 0.000000 -1.000000
vn 0.000000 0.000000 -1.000000
vn 0.000000 -1.000000 0.000000
vn 0.000000 -1.000000 0.000000
vn 0.000000 -1.000000 0.000000
vn 0.000000 -1.000000 0.000000
vn 1.000000 0.000000 0.000000
vn 1.000000 0.000000 0.000000
vn 1.000000 0.000000 0.000000
vn 1.000000 0.000000 0.000000
vn -1.000000 0.000000 0.000000
vn -1.000000 0.000000 0.000000
vn -1.000000 0.000000 0.000000
vn -1.000000 0.000000 0.000000
vn -1.000000 0.000000 0.000000
vn -1.000000 0.000000 0.000000
vn -1.000000 0.000000 0.000000
vn -1.000000 0.000000 0.000000
vn 0.000000 -1.000000 0.000000
vn 0.000000 -1.000000 0.000000
vn 0.000000 -1.000000 0.000000
vn 0.000000 -1.000000 0.000000
vn 1.000000 0.000000 0.000000
vn 1.000000 0.000000 0.000000
vn 1.000000 0.000000 0.000000
vn 1.000000 0.000000 0.000000
vn 0.000000 1.000000 0.000000
vn 0.000000 1.000000 0.000000
vn 0.000000 1.000000 0.000000
vn 0.000000 1.000000 0.000000
vn 0.000000 -1.000000 0.000000
vn 0.000000 -1.000000 0.000000
vn 0.000000 -1.000000 0.000000
vn 0.000000 -1.000000 0.000000
vn 0.000000 -1.000000 0.000000
vn 0.000000 -1.000000 0.000000
vn 0.000000 -1.000000 0.000000
vn 0.000000 -1.000000 0.000000
vn 0.000000 0.000000 1.000000
vn 0.000000 0.000000 1.000000
vn 0.000000 0.000000 1.000000
vn 0.000000 0.000000 1.000000
vn 0.000000 1.000000 0.000000
vn 0.000000 1.000000 0.000000
vn 0.000000 1.000000 0.000000
vn 0.000000 1.000000 0.000000
vn 0.000000 1.000000 0.000000
vn 0.000000 1.000000 0.000000
vn 0.000000 1.000000 0.000000
vn 0.000000 1.000000 0.000000
vn 0.000000 0.000000 -1.000000
vn 0.000000 0.000000 -1.000000
vn 0.000000 0.000000 -1.000000
vn 0.000000 0.000000 -1.000000
vn 0.000000 -1.000000 0.000000
vn 0.000000 -1.000000 0.000000
vn 0.000000 -1.000000 0.000000
vn 0.000000 -1.000000 0.000000
vn 0.000000 0.000000 1.000000
vn 0.000000 0.000000 1.000000
vn 0.000000 1.000000 0.000000
vn 0.000000 1.000000 0.000000
vn 0.000000 1.000000 0.000000
vn 0.000000 1.000000 0.000000
vn -0.000000 1.000000 0.000000
vn -0.000000 1.000000 0.000000
vn 0.000000 1.000000 0.000000
vn 0.000000 1.000000 0.000000
vn 0.000000 0.000000 -1.000000
vn 0.000000 0.000000 -1.000000
vn -1.000000 0.000000 0.000000
vn -1.000000 0.000000 0.000000
vn -1.000000 0.000000 0.000000
vn -1.000000 0.000000 0.000000
vn -1.000000 0.000000 0.000000
vn -1.000000 0.000000 0.000000
vn -1.000000 0.000000 0.000000
vn -1.000000 0.000000 0.000000
vn 0.000000 0.000000 -1.000000
vn 0.000000 0.000000 -1.000000
vn 0.000000 0.000000 -1.000000
vn 0.000000 0.000000 -1.000000
vn 0.000000 0.000000 -1.000000
vn 0.000000 0.000000 -1.000000
vn 0.000000 0.000000 -1.000000
vn 0.000000 0.000000 -1.000000
vn 0.000000 0.000000 -1.000000
vn 0.000000 0.000000 -1.000000
vn 1.000000 0.000000 0.000000
vn 1.000000 0.000000 0.000000
vn 1.000000 0.000000 0.000000
vn 1.000000 0.000000 0.000000
vn 1.000000 0.000000 0.000000
vn 1.000000 0.000000 0.000000
vn 1.000000 0.000000 0.000000
vn 1.000000 0.000000 0.000000
vn 0.000000 0.000000 1.000000
vn 0.000000 0.000000 1.000000
vn 0.000000 0.000000 1.000000
vn 0.000000 0.000000 1.000000
vn 0.000000 0.000000 1.000000
vn 0.000000 0.000000 1.000000
vn 0.000000 0.000000 1.000000
vn 0.000000 0.000000 1.000000
vn 0.000000 0.000000 1.000000
vn 0.000000 0.000000 1.000000
vn -0.000000 1.000000 0.000000
vn -0.000000 1.000000 0.000000
vn 0.997566 0.069736 0.000000
vn 0.997566 0.069736 0.000000
vn 0.997566 0.069736 0.000000
vn 0.997566 0.069736 0.000000
vn 0.000000 0.098257 -0.995161
vn 0.000000 0.098257 -0.995161
vn 0.000000 0.098257 -0.995161
vn 0.000000 0.098257 -0.995161
vn 0.000000 0.098257 0.995161
vn 0.000000 0.098257 0.995161
vn 0.000000 0.098257 0.995161
vn 0.000000 0.098257 0.995161
vn 0.000000 0.098257 -0.995161
vn 0.000000 0.098257 -0.995161
vn 0.000000 0.098257 -0.995161
vn 0.000000 0.098257 -0.995161
vn -0.997566 0.069736 0.000000
vn -0.997566 0.069736 0.000000
vn -0.997566 0.069736 0.000000
vn -0.997566 0.069736 0.000000
vn 0.000000 0.098257 0.995161
vn 0.000000 0.098257 0.995161
vn 0.000000 0.098257 0.995161
vn 0.000000 0.098257 0.995161
s 1
g box_withoutfolds polySurface17
usemtl initialShadingGroup
f 1/1/1 28/2/2 56/3/3 45/4/4
s 2
f 3/5/5 29/6/6 30/7/7 13/8/8
s 3
f 48/9/9 49/10/10 25/11/11 7/12/12
s 4
f 14/13/13 27/14/14 28/15/15 1/16/16
s 5
f 2/17/17 15/18/18 53/19/19 54/20/20
s 6
f 14/21/21 1/1/22 45/4/23 46/22/24
f 7/23/25 10/24/26 47/25/27 48/26/28
s 4
f 7/12/29 25/11/30 26/27/31 10/28/32
s 5
f 52/29/33 11/30/34 8/31/35 51/32/36
s 2
f 9/33/37 31/34/38 32/35/39 5/36/40
s 6
f 10/24/26 14/21/21 46/22/24 47/25/27
s 4
f 10/28/32 26/27/31 27/14/14 14/13/13
s 5
f 53/19/19 15/18/18 11/30/34 52/29/33
s 2
f 13/8/8 30/7/7 31/34/38 9/33/37
s 4
f 17/37/41 8/38/42 11/39/43 18/40/44
f 19/41/45 18/40/44 11/39/43 15/42/46
f 20/43/47 19/41/45 15/42/46 2/44/48
s 1
f 55/45/49 20/46/50 2/17/51 54/20/52
s 2
f 22/47/53 21/48/54 4/49/55 16/50/56
f 23/51/57 22/47/53 16/50/56 12/52/58
f 24/53/59 23/51/57 12/52/58 6/54/60
s 3
f 17/37/61 50/55/62 51/56/63 8/38/64
s 4
f 25/11/30 60/57/65 61/58/66 26/27/31
f 27/14/14 26/27/31 61/58/66 62/59/67
f 28/15/15 27/14/14 62/59/67 63/60/68
s 1
f 56/3/3 28/2/2 63/61/69 64/62/70
s 2
f 30/7/7 29/6/6 66/63/71 67/64/72
s 12
f 70/65/73 69/66/74 71/67/75 72/68/76
s 2
f 32/35/39 31/34/38 68/69/77 57/70/78
s 3
f 25/11/11 49/10/10 59/71/79 60/57/80
s 6
f 34/72/81 33/73/82 3/5/83 13/74/84
f 35/75/85 34/72/81 13/74/84 9/76/86
f 36/77/87 35/75/85 9/76/86 5/78/88
s 3
f 5/36/89 32/35/90 37/79/91 36/80/92
f 58/81/93 37/79/91 32/35/90 57/70/94
f 39/82/95 38/83/96 24/53/97 6/54/98
s 5
f 12/84/99 40/85/100 39/86/101 6/87/102
f 16/88/103 41/89/104 40/85/100 12/84/99
f 42/90/105 41/89/104 16/88/103 4/49/106
s 1
f 21/48/107 43/91/108 42/90/109 4/49/110
f 29/6/111 44/92/112 65/93/113 66/63/114
f 33/73/115 44/92/112 29/6/111 3/5/116
s 6
f 46/22/24 45/4/23 33/73/82 34/72/81
f 47/25/27 46/22/24 34/72/81 35/75/85
f 48/26/28 47/25/27 35/75/85 36/77/87
s 3
f 36/80/92 37/79/91 49/10/10 48/9/9
f 59/71/79 49/10/10 37/79/91 58/81/93
f 51/56/63 50/55/62 38/83/96 39/82/95
s 5
f 40/85/100 52/29/33 51/32/36 39/86/101
f 41/89/104 53/19/19 52/29/33 40/85/100
f 54/20/20 53/19/19 41/89/104 42/90/105
s 1
f 43/91/108 55/45/49 54/20/52 42/90/109
f 44/92/112 56/3/3 64/62/70 65/93/113
f 45/4/4 56/3/3 44/92/112 33/73/115
s 3
f 38/83/96 58/81/93 57/70/94 24/53/97
f 50/55/62 59/71/79 58/81/93 38/83/96
f 60/57/80 59/71/79 50/55/62 17/37/61
s 4
f 61/58/66 60/57/65 17/37/41 18/40/44
f 62/59/67 61/58/66 18/40/44 19/41/45
f 63/60/68 62/59/67 19/41/45 20/43/47
s 1
f 64/62/70 63/61/69 20/46/50 55/45/49
f 65/93/113 64/62/70 55/45/49 43/91/108
f 66/63/114 65/93/113 43/91/108 21/48/107
s 2
f 67/64/72 66/63/71 21/48/54 22/47/53
s 12
f 72/68/76 71/67/75 73/94/117 74/95/118
s 2
f 57/70/78 68/69/77 23/51/57 24/53/59
s off
f 31/34/119 30/7/120 69/66/121 70/65/122
f 30/7/123 67/64/124 71/67/125 69/66/126
f 68/69/127 31/34/128 70/65/129 72/68/130
f 67/64/131 22/47/132 73/94/133 71/67/134
f 22/47/135 23/51/136 74/95/137 73/94/138
f 23/51/139 68/69/140 72/68/141 74/95/142
