# This file uses centimeters as units for non-parametric coordinates.

mtllib box_half_open.mtl
g default
v -0.554151 0.000000 0.765013
v 0.554150 0.000000 0.765013
v -0.554151 0.731941 0.765013
v 0.554150 0.731941 0.765013
v -0.554151 0.731941 -0.765013
v 0.554150 0.731941 -0.765013
v -0.554151 0.000000 -0.765013
v 0.554150 0.000000 -0.765013
v -0.554151 0.731941 -0.716403
v -0.554151 0.000000 -0.716403
v 0.554150 0.000000 -0.716403
v 0.554150 0.731941 -0.716403
v -0.554151 0.731941 0.716403
v -0.554151 0.000000 0.716403
v 0.554150 0.000000 0.716403
v 0.554150 0.731941 0.716403
v 0.507225 0.000000 -0.765013
v 0.507225 0.000000 -0.716403
v 0.507225 0.000000 0.716403
v 0.507225 0.000000 0.765013
v 0.507225 0.731941 0.765013
v 0.507225 0.731941 0.716403
v 0.507225 0.731941 -0.716403
v 0.507225 0.731941 -0.765013
v -0.507224 0.000000 -0.765013
v -0.507224 0.000000 -0.716403
v -0.507224 0.000000 0.716403
v -0.507224 0.000000 0.765013
v -0.507224 0.731941 0.765013
v -0.507224 0.731941 0.716403
v -0.507224 0.731941 -0.716403
v -0.507224 0.731941 -0.765013
v -0.554151 0.676333 0.765013
v -0.554151 0.676333 0.716403
v -0.554151 0.676333 -0.716403
v -0.554151 0.676333 -0.765013
v -0.507224 0.676333 -0.765013
v 0.507225 0.676333 -0.765013
v 0.554150 0.676333 -0.765013
v 0.554150 0.676333 -0.716403
v 0.554150 0.676333 0.716403
v 0.554150 0.676333 0.765013
v 0.507225 0.676333 0.765013
v -0.507224 0.676333 0.765013
v -0.554151 0.055608 0.765013
v -0.554151 0.055608 0.716403
v -0.554151 0.055608 -0.716403
v -0.554151 0.055608 -0.765013
v -0.507224 0.055608 -0.765013
v 0.507225 0.055608 -0.765013
v 0.554150 0.055608 -0.765013
v 0.554150 0.055608 -0.716403
v 0.554150 0.055608 0.716403
v 0.554150 0.055608 0.765013
v 0.507225 0.055608 0.765013
v -0.507224 0.055608 0.765013
v 0.000001 0.731941 -0.765013
v 0.000001 0.676333 -0.765013
v 0.000001 0.055608 -0.765013
v 0.000001 0.000000 -0.765013
v 0.000001 0.000000 -0.716403
v 0.000001 0.000000 0.716403
v 0.000001 0.000000 0.765013
v 0.000001 0.055608 0.765013
v 0.000001 0.676333 0.765013
v 0.000001 0.731941 0.765013
v 0.000001 0.731941 0.716403
v 0.000001 0.731941 -0.716403
v -0.480062 0.343390 0.678039
v -0.480062 0.343390 -0.678039
v 0.000001 0.343390 0.678039
v 0.000001 0.343390 -0.678039
v 0.480063 0.343390 0.678039
v 0.480063 0.343390 -0.678039
v -0.541559 0.752733 0.765013
v -0.519814 0.711149 0.765013
v -0.519814 0.711149 0.716403
v -0.541559 0.752733 0.716403
v -0.519814 0.711149 -0.716403
v -0.519814 0.711149 -0.765013
v -0.541559 0.752733 -0.765013
v -0.541559 0.752733 -0.716403
v -0.098480 0.984425 0.765013
v -0.076735 0.942841 0.765013
v -0.076735 0.942841 0.716403
v -0.098480 0.984425 0.716403
v -0.076735 0.942841 -0.716403
v -0.098480 0.984425 -0.716403
v -0.076735 0.942841 -0.765013
v -0.098480 0.984425 -0.765013
v 0.541148 0.686854 0.716403
v 0.541148 0.686854 0.765013
v 0.554151 0.731941 0.765013
v 0.554151 0.731941 0.716403
v 0.541148 0.686854 -0.716403
v 0.554151 0.731941 -0.716403
v 0.541148 0.686854 -0.765013
v 0.554151 0.731941 -0.765013
v 0.060726 0.825400 0.765013
v 0.060726 0.825400 0.716403
v 0.073729 0.870487 0.765013
v 0.073729 0.870487 0.716403
v 0.060726 0.825400 -0.716403
v 0.073729 0.870487 -0.716403
v 0.060726 0.825400 -0.765013
v 0.073729 0.870487 -0.765013
vt 0.375000 0.000000
vt 0.458333 0.000000
vt 0.458333 0.083333
vt 0.375000 0.083333
vt 0.375000 0.666667
vt 0.458333 0.666667
vt 0.458333 0.750000
vt 0.375000 0.750000
vt 0.375000 0.916667
vt 0.458333 0.916667
vt 0.458333 1.000000
vt 0.375000 1.000000
vt 0.625000 0.000000
vt 0.708333 0.000000
vt 0.708333 0.083333
vt 0.625000 0.083333
vt 0.291667 0.000000
vt 0.291667 0.083333
vt 0.125000 0.000000
vt 0.208333 0.000000
vt 0.208333 0.083333
vt 0.125000 0.083333
vt 0.458333 0.833333
vt 0.375000 0.833333
vt 0.791667 0.083333
vt 0.791667 0.000000
vt 0.875000 0.000000
vt 0.875000 0.083333
vt 0.541667 0.750000
vt 0.625000 0.750000
vt 0.625000 0.833333
vt 0.541667 0.833333
vt 0.541667 0.916667
vt 0.625000 0.916667
vt 0.541667 1.000000
vt 0.625000 1.000000
vt 0.541667 0.083333
vt 0.541667 0.000000
vt 0.541667 0.666667
vt 0.625000 0.666667
vt 0.500000 0.750000
vt 0.500000 0.833333
vt 0.500000 0.916667
vt 0.500000 1.000000
vt 0.500000 0.000000
vt 0.500000 0.083333
vt 0.458333 0.333333
vt 0.458333 0.250000
vt 0.500000 0.250000
vt 0.500000 0.333333
vt 0.458333 0.416667
vt 0.458333 0.333333
vt 0.500000 0.333333
vt 0.500000 0.416667
vt 0.458333 0.500000
vt 0.458333 0.416667
vt 0.500000 0.416667
vt 0.500000 0.500000
vt 0.500000 0.666667
vt 0.291667 0.166667
vt 0.375000 0.166667
vt 0.375000 0.250000
vt 0.291667 0.250000
vt 0.208333 0.166667
vt 0.208333 0.250000
vt 0.125000 0.166667
vt 0.125000 0.250000
vt 0.375000 0.500000
vt 0.458333 0.583333
vt 0.375000 0.583333
vt 0.500000 0.583333
vt 0.625000 0.583333
vt 0.541667 0.583333
vt 0.541667 0.500000
vt 0.625000 0.500000
vt 0.791667 0.250000
vt 0.791667 0.166667
vt 0.875000 0.166667
vt 0.875000 0.250000
vt 0.708333 0.250000
vt 0.708333 0.166667
vt 0.625000 0.166667
vt 0.625000 0.250000
vt 0.541667 0.250000
vt 0.541667 0.166667
vt 0.458333 0.166667
vt 0.500000 0.166667
vt 0.541667 0.333333
vt 0.541667 0.333333
vt 0.541667 0.416667
vt 0.541667 0.416667
vt 0.375000 0.250000
vt 0.458333 0.250000
vt 0.458333 0.333333
vt 0.375000 0.333333
vt 0.375000 0.416667
vt 0.458333 0.416667
vt 0.458333 0.500000
vt 0.375000 0.500000
vt 0.375000 0.250000
vt 0.375000 0.333333
vt 0.458333 0.333333
vt 0.458333 0.250000
vt 0.375000 0.416667
vt 0.375000 0.500000
vt 0.458333 0.500000
vt 0.458333 0.416667
vt 0.375000 0.250000
vt 0.458333 0.250000
vt 0.458333 0.333333
vt 0.375000 0.333333
vt 0.458333 0.416667
vt 0.458333 0.500000
vt 0.375000 0.500000
vt 0.375000 0.416667
vt 0.541667 0.333333
vt 0.541667 0.250000
vt 0.625000 0.250000
vt 0.625000 0.333333
vt 0.541667 0.416667
vt 0.625000 0.416667
vt 0.541667 0.500000
vt 0.625000 0.500000
vt 0.541667 0.333333
vt 0.625000 0.333333
vt 0.625000 0.250000
vt 0.541667 0.250000
vt 0.541667 0.416667
vt 0.625000 0.416667
vt 0.541667 0.500000
vt 0.625000 0.500000
vt 0.541667 0.333333
vt 0.541667 0.250000
vt 0.625000 0.250000
vt 0.625000 0.333333
vt 0.541667 0.416667
vt 0.625000 0.416667
vt 0.541667 0.500000
vt 0.625000 0.500000
vn 0.000000 0.000000 1.000000
vn 0.000000 0.000000 1.000000
vn 0.000000 0.000000 1.000000
vn 0.000000 0.000000 1.000000
vn 0.000000 0.000000 -1.000000
vn 0.000000 0.000000 -1.000000
vn 0.000000 0.000000 -1.000000
vn 0.000000 0.000000 -1.000000
vn 0.000000 -1.000000 0.000000
vn 0.000000 -1.000000 0.000000
vn 0.000000 -1.000000 0.000000
vn 0.000000 -1.000000 0.000000
vn 1.000000 0.000000 0.000000
vn 1.000000 0.000000 0.000000
vn 1.000000 0.000000 0.000000
vn 1.000000 0.000000 0.000000
vn -1.000000 0.000000 0.000000
vn -1.000000 0.000000 0.000000
vn -1.000000 0.000000 0.000000
vn -1.000000 0.000000 0.000000
vn -1.000000 0.000000 0.000000
vn -1.000000 0.000000 0.000000
vn -1.000000 0.000000 0.000000
vn -1.000000 0.000000 0.000000
vn 0.000000 -1.000000 0.000000
vn 0.000000 -1.000000 0.000000
vn 0.000000 -1.000000 0.000000
vn 0.000000 -1.000000 0.000000
vn 1.000000 0.000000 0.000000
vn 1.000000 0.000000 0.000000
vn 1.000000 0.000000 0.000000
vn 1.000000 0.000000 0.000000
vn 0.000000 -1.000000 0.000000
vn 0.000000 -1.000000 0.000000
vn 0.000000 -1.000000 0.000000
vn 0.000000 -1.000000 0.000000
vn 0.000000 -1.000000 0.000000
vn 0.000000 -1.000000 0.000000
vn 0.000000 -1.000000 0.000000
vn 0.000000 -1.000000 0.000000
vn 0.000000 0.000000 1.000000
vn 0.000000 0.000000 1.000000
vn 0.000000 0.000000 1.000000
vn 0.000000 0.000000 1.000000
vn 0.000000 0.000000 -1.000000
vn 0.000000 0.000000 -1.000000
vn 0.000000 0.000000 -1.000000
vn 0.000000 0.000000 -1.000000
vn 0.000000 -1.000000 0.000000
vn 0.000000 -1.000000 0.000000
vn 0.000000 -1.000000 0.000000
vn 0.000000 -1.000000 0.000000
vn 0.000000 0.000000 1.000000
vn 0.000000 0.000000 1.000000
vn 0.000000 1.000000 0.000000
vn 0.000000 1.000000 0.000000
vn 0.000000 1.000000 0.000000
vn 0.000000 1.000000 0.000000
vn 0.000000 1.000000 0.000000
vn 0.000000 1.000000 0.000000
vn -0.000000 1.000000 0.000000
vn -0.000000 1.000000 0.000000
vn 0.000000 1.000000 0.000000
vn 0.000000 1.000000 0.000000
vn 0.000000 1.000000 0.000000
vn 0.000000 1.000000 0.000000
vn 0.000000 0.000000 -1.000000
vn 0.000000 0.000000 -1.000000
vn -1.000000 0.000000 0.000000
vn -1.000000 0.000000 0.000000
vn -1.000000 0.000000 0.000000
vn -1.000000 0.000000 0.000000
vn -1.000000 0.000000 0.000000
vn -1.000000 0.000000 0.000000
vn -1.000000 0.000000 0.000000
vn -1.000000 0.000000 0.000000
vn 0.000000 0.000000 -1.000000
vn 0.000000 0.000000 -1.000000
vn 0.000000 0.000000 -1.000000
vn 0.000000 0.000000 -1.000000
vn 0.000000 0.000000 -1.000000
vn 0.000000 0.000000 -1.000000
vn 0.000000 0.000000 -1.000000
vn 0.000000 0.000000 -1.000000
vn 0.000000 0.000000 -1.000000
vn 0.000000 0.000000 -1.000000
vn 1.000000 0.000000 0.000000
vn 1.000000 0.000000 0.000000
vn 1.000000 0.000000 0.000000
vn 1.000000 0.000000 0.000000
vn 1.000000 0.000000 0.000000
vn 1.000000 0.000000 0.000000
vn 1.000000 0.000000 0.000000
vn 1.000000 0.000000 0.000000
vn 0.000000 0.000000 1.000000
vn 0.000000 0.000000 1.000000
vn 0.000000 0.000000 1.000000
vn 0.000000 0.000000 1.000000
vn 0.000000 0.000000 1.000000
vn 0.000000 0.000000 1.000000
vn 0.000000 0.000000 1.000000
vn 0.000000 0.000000 1.000000
vn 0.000000 0.000000 1.000000
vn 0.000000 0.000000 1.000000
vn 0.000000 1.000000 0.000000
vn 0.000000 1.000000 0.000000
vn -0.000000 1.000000 0.000000
vn -0.000000 1.000000 0.000000
vn 0.000000 1.000000 0.000000
vn 0.000000 1.000000 0.000000
vn 0.997566 0.069735 0.000000
vn 0.997566 0.069735 0.000000
vn 0.997566 0.069735 0.000000
vn 0.997566 0.069735 0.000000
vn 0.000000 0.098257 -0.995161
vn 0.000000 0.098257 -0.995161
vn 0.000000 0.098257 -0.995161
vn 0.000000 0.098257 -0.995161
vn 0.000000 0.098257 0.995161
vn 0.000000 0.098257 0.995161
vn 0.000000 0.098257 0.995161
vn 0.000000 0.098257 0.995161
vn 0.000000 0.098257 -0.995161
vn 0.000000 0.098257 -0.995161
vn 0.000000 0.098257 -0.995161
vn 0.000000 0.098257 -0.995161
vn -0.997566 0.069735 0.000000
vn -0.997566 0.069735 0.000000
vn -0.997566 0.069735 0.000000
vn -0.997566 0.069735 0.000000
vn 0.000000 0.098257 0.995161
vn 0.000000 0.098257 0.995161
vn 0.000000 0.098257 0.995161
vn 0.000000 0.098257 0.995161
vn 1.000000 0.000000 0.000000
vn 1.000000 0.000000 0.000000
vn 1.000000 0.000000 0.000000
vn 1.000000 0.000000 0.000000
vn 0.000000 1.000000 0.000000
vn 0.000000 1.000000 0.000000
vn 0.000000 1.000000 0.000000
vn 0.000000 1.000000 0.000000
vn 0.000000 1.000000 0.000000
vn 0.000000 1.000000 0.000000
vn 0.000000 1.000000 0.000000
vn 0.000000 1.000000 0.000000
vn 0.000000 1.000000 0.000000
vn 0.000000 1.000000 0.000000
vn 0.000000 1.000000 0.000000
vn 0.000000 1.000000 0.000000
vn 0.000000 1.000000 0.000000
vn 0.000000 1.000000 0.000000
vn 0.000000 1.000000 0.000000
vn 0.000000 1.000000 0.000000
vn 0.886159 0.463382 0.000000
vn 0.886159 0.463382 0.000000
vn 0.886159 0.463382 0.000000
vn 0.886159 0.463382 0.000000
vn 0.886159 0.463382 0.000000
vn 0.886159 0.463382 0.000000
vn 0.886159 0.463382 0.000000
vn 0.886159 0.463382 0.000000
vn -0.886159 -0.463382 0.000000
vn -0.886159 -0.463382 0.000000
vn -0.886159 -0.463382 0.000000
vn -0.886159 -0.463382 0.000000
vn -0.886158 -0.463382 0.000000
vn -0.886158 -0.463383 0.000000
vn -0.886158 -0.463383 0.000000
vn -0.886158 -0.463382 0.000000
vn -0.000001 0.000000 1.000000
vn -0.000001 0.000000 1.000000
vn -0.000001 0.000000 1.000000
vn -0.000001 0.000000 1.000000
vn 0.463383 -0.886158 0.000000
vn 0.463383 -0.886158 0.000000
vn 0.463383 -0.886158 0.000000
vn 0.463383 -0.886158 0.000000
vn -0.463383 0.886158 0.000000
vn -0.463383 0.886158 0.000000
vn -0.463383 0.886158 0.000000
vn -0.463383 0.886158 0.000000
vn 0.463383 -0.886158 0.000000
vn 0.463383 -0.886158 0.000000
vn 0.463383 -0.886158 0.000000
vn 0.463383 -0.886158 0.000000
vn -0.000001 0.000000 -1.000000
vn -0.000001 0.000000 -1.000000
vn -0.000001 0.000000 -1.000000
vn -0.000001 0.000000 -1.000000
vn -0.463383 0.886158 0.000000
vn -0.463383 0.886158 0.000000
vn -0.463383 0.886158 0.000000
vn -0.463383 0.886158 0.000000
vn -0.960844 0.277090 0.000000
vn -0.960844 0.277090 0.000000
vn -0.960844 0.277090 0.000000
vn -0.960844 0.277090 0.000000
vn -0.960844 0.277090 0.000000
vn -0.960844 0.277090 0.000000
vn -0.960844 0.277090 0.000000
vn -0.960844 0.277090 0.000000
vn 0.960844 -0.277091 0.000000
vn 0.960844 -0.277091 0.000000
vn 0.960844 -0.277091 0.000000
vn 0.960844 -0.277091 0.000000
vn 0.960844 -0.277091 0.000000
vn 0.960844 -0.277091 0.000000
vn 0.960844 -0.277090 0.000000
vn 0.960844 -0.277090 0.000000
vn -0.277091 -0.960844 0.000000
vn -0.277091 -0.960844 0.000000
vn -0.277091 -0.960844 0.000000
vn -0.277091 -0.960844 0.000000
vn -0.000000 0.000000 1.000000
vn -0.000000 0.000000 1.000000
vn -0.000000 0.000000 1.000000
vn -0.000000 0.000000 1.000000
vn 0.277091 0.960844 0.000000
vn 0.277091 0.960844 0.000000
vn 0.277091 0.960844 0.000000
vn 0.277091 0.960844 0.000000
vn -0.277091 -0.960844 0.000000
vn -0.277091 -0.960844 0.000000
vn 0.277091 0.960844 0.000000
vn 0.277091 0.960844 0.000000
vn -0.277091 -0.960844 0.000000
vn -0.277091 -0.960844 0.000000
vn 0.277091 0.960844 0.000000
vn 0.277091 0.960844 0.000000
vn -0.000000 0.000000 -1.000000
vn -0.000000 0.000000 -1.000000
vn -0.000000 0.000000 -1.000000
vn -0.000000 0.000000 -1.000000
s 1
g polySurface23
usemtl initialShadingGroup
f 1/1/1 28/2/2 56/3/3 45/4/4
s 2
f 48/5/5 49/6/6 25/7/7 7/8/8
s 3
f 14/9/9 27/10/10 28/11/11 1/12/12
s 4
f 2/13/13 15/14/14 53/15/15 54/16/16
s 5
f 14/17/17 1/1/18 45/4/19 46/18/20
f 7/19/21 10/20/22 47/21/23 48/22/24
s 3
f 7/8/25 25/7/26 26/23/27 10/24/28
s 4
f 52/25/29 11/26/30 8/27/31 51/28/32
s 5
f 10/20/22 14/17/17 46/18/20 47/21/23
s 3
f 10/24/28 26/23/27 27/10/10 14/9/9
s 4
f 53/15/15 15/14/14 11/26/30 52/25/29
s 3
f 17/29/33 8/30/34 11/31/35 18/32/36
f 19/33/37 18/32/36 11/31/35 15/34/38
f 20/35/39 19/33/37 15/34/38 2/36/40
s 1
f 55/37/41 20/38/42 2/13/43 54/16/44
s 2
f 17/29/45 50/39/46 51/40/47 8/30/48
s 3
f 25/7/26 60/41/49 61/42/50 26/23/27
f 27/10/10 26/23/27 61/42/50 62/43/51
f 28/11/11 27/10/10 62/43/51 63/44/52
s 1
f 56/3/3 28/2/2 63/45/53 64/46/54
s 10
f 30/47/55 29/48/56 66/49/57 67/50/58
s 11
f 70/51/59 69/52/60 71/53/61 72/54/62
s 12
f 32/55/63 31/56/64 68/57/65 57/58/66
s 2
f 25/7/7 49/6/6 59/59/67 60/41/68
s 5
f 34/60/69 33/61/70 3/62/71 13/63/72
f 35/64/73 34/60/69 13/63/72 9/65/74
f 36/66/75 35/64/73 9/65/74 5/67/76
s 2
f 5/68/77 32/55/78 37/69/79 36/70/80
f 58/71/81 37/69/79 32/55/78 57/58/82
f 39/72/83 38/73/84 24/74/85 6/75/86
s 4
f 12/76/87 40/77/88 39/78/89 6/79/90
f 16/80/91 41/81/92 40/77/88 12/76/87
f 42/82/93 41/81/92 16/80/91 4/83/94
s 1
f 21/84/95 43/85/96 42/82/97 4/83/98
f 29/48/99 44/86/100 65/87/101 66/49/102
f 33/61/103 44/86/100 29/48/99 3/62/104
s 5
f 46/18/20 45/4/19 33/61/70 34/60/69
f 47/21/23 46/18/20 34/60/69 35/64/73
f 48/22/24 47/21/23 35/64/73 36/66/75
s 2
f 36/70/80 37/69/79 49/6/6 48/5/5
f 59/59/67 49/6/6 37/69/79 58/71/81
f 51/40/47 50/39/46 38/73/84 39/72/83
s 4
f 40/77/88 52/25/29 51/28/32 39/78/89
f 54/16/16 53/15/15 41/81/92 42/82/93
s 1
f 43/85/96 55/37/41 54/16/44 42/82/97
f 44/86/100 56/3/3 64/46/54 65/87/101
f 45/4/4 56/3/3 44/86/100 33/61/103
s 2
f 38/73/84 58/71/81 57/58/82 24/74/85
f 50/39/46 59/59/67 58/71/81 38/73/84
f 60/41/68 59/59/67 50/39/46 17/29/45
s 3
f 61/42/50 60/41/49 17/29/33 18/32/36
f 62/43/51 61/42/50 18/32/36 19/33/37
f 63/44/52 62/43/51 19/33/37 20/35/39
s 1
f 64/46/54 63/45/53 20/38/42 55/37/41
f 65/87/101 64/46/54 55/37/41 43/85/96
f 66/49/102 65/87/101 43/85/96 21/84/95
s 10
f 67/50/58 66/49/57 21/84/105 22/88/106
s 11
f 72/54/62 71/53/61 73/89/107 74/90/108
s 12
f 57/58/66 68/57/65 23/91/109 24/74/110
s off
f 31/56/111 30/47/112 69/52/113 70/51/114
f 30/47/115 67/50/116 71/53/117 69/52/118
f 68/57/119 31/56/120 70/51/121 72/54/122
f 67/50/123 22/88/124 73/89/125 71/53/126
f 22/88/127 23/91/128 74/90/129 73/89/130
f 23/91/131 68/57/132 72/54/133 74/90/134
f 41/81/135 53/15/136 52/25/137 40/77/138
f 16/80/139 12/76/140 6/75/141 24/74/142 23/91/143 22/88/144 21/84/145 4/83/146
f 29/48/147 30/47/148 31/56/149 32/55/150 5/67/151 9/65/152 13/63/153 3/62/154
s 17
f 83/92/155 84/93/156 85/94/157 86/95/158
f 88/96/159 87/97/160 89/98/161 90/99/162
f 86/95/158 85/94/157 87/97/160 88/96/159
s 18
f 75/100/163 78/101/164 77/102/165 76/103/166
f 82/104/167 81/105/168 80/106/169 79/107/170
f 78/101/164 82/104/167 79/107/170 77/102/165
s off
f 75/108/171 76/109/172 84/93/173 83/92/174
s 19
f 76/109/175 77/110/176 85/94/177 84/93/178
s 20
f 78/111/179 75/108/180 83/92/181 86/95/182
s 19
f 79/112/183 80/113/184 89/98/185 87/97/186
s off
f 80/113/187 81/114/188 90/99/189 89/98/190
s 20
f 81/114/191 82/115/192 88/96/193 90/99/194
s 19
f 77/110/176 79/112/183 87/97/186 85/94/177
s 20
f 82/115/192 78/111/179 86/95/182 88/96/193
s 21
f 100/116/195 99/117/196 101/118/197 102/119/198
f 103/120/199 100/116/195 102/119/198 104/121/200
f 105/122/201 103/120/199 104/121/200 106/123/202
s 22
f 91/124/203 94/125/204 93/126/205 92/127/206
f 95/128/207 96/129/208 94/125/204 91/124/203
f 97/130/209 98/131/210 96/129/208 95/128/207
s 23
f 91/132/211 92/133/212 99/117/213 100/116/214
s off
f 92/133/215 93/134/216 101/118/217 99/117/218
s 24
f 93/134/219 94/135/220 102/119/221 101/118/222
s 23
f 95/136/223 91/132/211 100/116/214 103/120/224
s 24
f 94/135/220 96/137/225 104/121/226 102/119/221
s 23
f 97/138/227 95/136/223 103/120/224 105/122/228
s 24
f 96/137/225 98/139/229 106/123/230 104/121/226
s off
f 98/139/231 97/138/232 105/122/233 106/123/234
